#N canvas 0 51 1440 808 10;
#X obj 33 390 catch~ groupe-\$1-in;
#X obj 182 -45 namecanvas groupe-\$1;
#X obj 33 411 send~ groupe-\$1-canal-0;
#X obj 445 -43 loadbang;
#X obj 503 25 send in-left-effet-effet-rien-groupe-\$1;
#X obj 741 24 send out-left-effet-effet-rien-groupe-\$1;
#X msg 906 -26 set NULL;
#X msg 1150 -26 set NULL;
#X obj 445 -19 symbol \$1;
#X msg 503 -2 set groupe-\$1-canal-0;
#X msg 741 -2 set groupe-\$1-grope-\$1-out;
#X obj 906 -3 send in-right-effet-effet-rien-groupe-\$1;
#X obj 1150 0 send out-right-effet-effet-rien-groupe-\$1;
#X obj 544 127 receive groupe-\$1-add;
#X obj 563 170 symbol groupe-\$1;
#X obj 673 170 symbol \$1;
#X obj 563 187 list;
#X obj 544 153 t s b b;
#X obj 544 204 list;
#X msg 544 228 \; \$2 obj 300 300 maillon-effet \$3 \$1 receive13~
transition;
#X obj 544 264 t b;
#X obj 1032 192 symbol effet-rien;
#X text 971 227 canal d'entrée du dernier maillon de la liste;
#X text 991 154 effet du dernier maillon de la liste d'effets (pour
savoir ou ajouter de nouveaux effets);
#X obj 1037 254 i 0;
#X msg 547 314 set out-;
#X obj 13 439 maillon-effet \$1 effet-rien receive13~ transition;
#X obj 220 88 shell;
#X connect 0 0 2 0;
#X connect 3 0 8 0;
#X connect 3 0 6 0;
#X connect 3 0 7 0;
#X connect 6 0 11 0;
#X connect 7 0 12 0;
#X connect 8 0 9 0;
#X connect 8 0 10 0;
#X connect 9 0 4 0;
#X connect 10 0 5 0;
#X connect 13 0 17 0;
#X connect 14 0 16 0;
#X connect 15 0 16 1;
#X connect 16 0 18 1;
#X connect 17 0 18 0;
#X connect 17 1 14 0;
#X connect 17 2 15 0;
#X connect 18 0 19 0;
#X connect 19 0 20 0;
#X connect 20 0 24 0;
