#N canvas 1 51 1009 540 10;
#X obj 113 -104 namecanvas effet-\$2-groupe-\$1;
#X obj 115 263 send13~;
#X obj 261 263 send13~;
#X text 550 70 \$1 : nom du groupe;
#X text 550 85 \$2 : nom du patch de l'effet;
#X obj 282 102 \$3;
#X obj -40 102 \$3;
#X text 550 100 \$3 : pas le choix si on veut connecter \, on doit
passer receive13~;
#X obj -40 79 receive in-left-effet-\$2-groupe-\$1;
#X obj 282 79 receive in-right-effet-\$2-groupe-\$1;
#X obj 323 246 receive out-right-effet-\$2-groupe-\$1;
#X text 551 125 \$4 : idem \, faut passer une abstraction qui permet
d'effectuer une transition \, qui a besoin de paramètres :;
#X obj 182 179 \$2;
#X obj 182 119 \$4 \$1 \$2 haut;
#X obj 182 246 \$4 \$1 \$2 bas;
#X text 551 151 le nom du groupe \, le nom de l'effet ainsi que la
postion (haut/bas);
#X obj -116 246 receive out-left-effet-\$2-groupe-\$1;
#X obj 190 7 symbol left;
#X obj 190 33 send active-effet-\$2-groupe-\$1-haut;
#X obj 190 -71 receive get-active-effet-\$2-groupe-\$1-haut;
#X obj 140 355 symbol left;
#X obj 140 287 receive get-active-effet-\$2-groupe-\$1-bas;
#X obj 140 381 send active-effet-\$2-groupe-\$1-bas;
#X obj 253 -23 receive set-active-effet-\$2-groupe-\$1-haut;
#X obj 203 321 receive set-active-effet-\$2-groupe-\$1-bas;
#X obj -85 -85 receive get-pred-effet-\$2-groupe-\$1;
#X obj -85 -2 send pred-effet-\$2-groupe-\$1;
#X obj -85 -22 symbol;
#X obj -52 -51 receive set-pred-effet-\$2-groupe-\$1;
#X obj 555 349 symbol;
#X obj 555 286 receive get-next-effet-\$2-groupe-\$1;
#X obj 588 320 receive set-next-effet-\$2-groupe-\$1;
#X obj 555 369 send next-effet-\$2-groupe-\$1;
#X connect 5 0 13 1;
#X connect 6 0 13 0;
#X connect 8 0 6 0;
#X connect 9 0 5 0;
#X connect 10 0 2 0;
#X connect 12 0 14 0;
#X connect 13 0 12 0;
#X connect 14 0 2 0;
#X connect 14 0 1 0;
#X connect 16 0 1 0;
#X connect 17 0 18 0;
#X connect 19 0 17 0;
#X connect 20 0 22 0;
#X connect 21 0 20 0;
#X connect 23 0 17 1;
#X connect 24 0 20 1;
#X connect 25 0 27 0;
#X connect 27 0 26 0;
#X connect 28 0 27 1;
#X connect 29 0 32 0;
#X connect 30 0 29 0;
#X connect 31 0 29 1;
