#N canvas 1 51 1009 545 10;
#X declare -path ./;
#X declare -lib pdcontainer;
#X obj 40 -1 netreceive 3005 1;
#X obj 40 16 route open close tell effect;
#N canvas 487 226 1009 540 routeopen 0;
#X obj 61 66 list;
#X obj 169 83 receive index;
#X obj 204 100 print objet cree;
#X obj 118 134 h_map map;
#X msg 118 117 add \$1;
#X msg 322 117 \; pd open wrapper.pd ./ \;;
#X obj 61 49 inlet;
#X obj 61 100 list;
#X obj 118 100 t f b;
#X text 274 77 Le wrapper loadbang son \$0;
#X msg 61 312 \; wrap-\$3 \$1 \$2 \;;
#X text 220 188 Recoit le nom d'un fichier \, le groupe auquel on veut
qu'il appartienne ainsi que le nombre attribue par le client. Map le
nombre du client avec le \$0 du canvas du wrapper nouvellement cree.
Appel egalement wrap-<\$0_du_wrapper> afin qu'il charge l'abstraction
demandee.;
#X obj 61 83 list split 2;
#X connect 0 0 12 0;
#X connect 1 0 2 0;
#X connect 1 0 3 1;
#X connect 1 0 7 1;
#X connect 4 0 3 0;
#X connect 6 0 0 0;
#X connect 7 0 10 0;
#X connect 8 0 4 0;
#X connect 8 1 5 0;
#X connect 12 0 7 0;
#X connect 12 1 8 0;
#X restore 40 458 pd routeopen;
#N canvas 0 76 1009 545 routeclose 0;
#X obj 44 4 inlet;
#X msg 71 38 get \$1;
#X obj 71 55 h_map map;
#X obj 122 72 print objet introuvable;
#X msg 0 169 \; canv-\$1 menuclose \;;
#X obj 44 21 t f f;
#X msg 1 38 remove \$1;
#X obj 71 121 t f b f;
#X obj 90 220 send;
#X msg 110 203 symbol shut-\$1;
#X obj 0 103 del 150;
#X obj 0 138 f;
#X connect 0 0 5 0;
#X connect 1 0 2 0;
#X connect 2 0 7 0;
#X connect 2 2 3 0;
#X connect 5 0 6 0;
#X connect 5 1 1 0;
#X connect 6 0 2 0;
#X connect 7 0 10 0;
#X connect 7 0 11 1;
#X connect 7 1 8 0;
#X connect 7 2 9 0;
#X connect 9 0 8 1;
#X connect 10 0 11 0;
#X connect 11 0 4 0;
#X restore 81 419 pd routeclose;
#N canvas 115 161 450 300 routetell 0;
#X obj 108 57 inlet;
#X msg 108 91 get \$1;
#X obj 108 74 list split 1;
#X obj 108 108 h_map map;
#X obj 121 125 list;
#X obj 179 125 print objet introuvable;
#X msg 121 195 \; \$1-\$2 \$3 \;;
#X connect 0 0 2 0;
#X connect 1 0 3 0;
#X connect 2 0 1 0;
#X connect 2 1 4 1;
#X connect 3 0 4 0;
#X connect 3 2 5 0;
#X connect 4 0 6 0;
#X restore 122 382 pd routetell;
#X obj 156 -6 declare -path ./;
#X obj 268 -6 declare -lib pdcontainer;
#X obj 232 99 print netr;
#X obj 435 4 loadbang;
#X obj 435 24 delay 200;
#X msg 435 45 \; pd dsp 1 \;;
#X text 44 195 faire toussa en osc;
#N canvas 12 54 1009 540 effect 0;
#X obj 75 8 inlet;
#X text 262 14 liste en entrée arg0 add/rm \; arg1 : nom du groupe
\; arg2 : nom effet;
#X obj 75 33 route add rm;
#X obj 451 20 groupe-effet ambiance;
#X msg 75 96;
#X connect 0 0 2 0;
#X connect 2 0 4 0;
#X restore 163 343 pd effect;
#X obj 316 320 dac~;
#X connect 0 0 1 0;
#X connect 0 0 7 0;
#X connect 1 0 2 0;
#X connect 1 1 3 0;
#X connect 1 2 4 0;
#X connect 1 3 12 0;
#X connect 8 0 9 0;
#X connect 9 0 10 0;
