#N canvas 1 51 1009 537 10;
#X obj 147 -64 loadbang;
#X obj 147 -30 s index;
#X obj 147 -47 \$0;
#X obj 11 -74 namecanvas canv-\$0;
#X obj 12 -57 receive wrap-\$0;
#X obj 12 -33 list \$0;
#X obj 12 151 send load-\$0;
#X text 125 -12 on loadbang le \$0 (voir routeopen);
#X text 51 96 \$2 : nom du groupe dont on veut que l'abstraction fasse
partie;
#X text 51 79 \$1 : nom de l'abstraction;
#X text 51 122 \$3 : \$0 de ce canvas;
#X obj 12 14 t b b l;
#X text 17 363 sound contient l'abstraction que l'on ouvre.;
#X msg 78 31 \; canv-\$3 obj 100 400 wrap-abs \$1 \$2 \$3 \; canv-\$3
obj 300 400 dsp;
#X text 332 29 Je créé un dsp pour que l'abstraction soit prise en
compte. Je crois que ça ne marche pas qu'avec dsp mais avec un certain
type d'objets. Plutôt étrange. Voir si ça marche a tous les coups.
;
#X connect 0 0 2 0;
#X connect 2 0 1 0;
#X connect 4 0 5 0;
#X connect 5 0 11 0;
#X connect 11 0 6 0;
#X connect 11 2 13 0;
